<svg width="192" height="78" viewBox="0 0 192 78" fill="none" xmlns="http://www.w3.org/2000/svg">
<path d="M76.6043 44.5635C72.6377 44.5635 69.8759 43.3001 67.9073 41.449L70.581 37.5119C71.9913 38.9222 74.1656 40.0975 76.8687 40.0975C78.5729 40.0975 79.6306 39.5098 79.6306 38.5402C79.6306 35.9546 68.5537 38.0995 68.5537 30.5484C68.5537 27.2576 71.3156 24.3194 76.3399 24.3194C79.4837 24.3194 82.2162 25.2596 84.3023 27.0519L81.5404 30.8422C79.8951 29.4612 77.7502 28.7855 75.811 28.7855C74.3419 28.7855 73.6955 29.285 73.6955 30.137C73.6955 32.5463 84.7725 30.7247 84.7725 38.0114C84.7725 41.9485 81.8637 44.5635 76.6043 44.5635ZM96.744 44.5635C90.7207 44.5635 86.1371 40.4501 86.1371 34.4268C86.1371 28.3741 90.7207 24.29 96.744 24.29C101.474 24.29 104.031 26.9638 105.294 29.52L100.946 31.6061C100.299 30.0489 98.6244 28.7561 96.744 28.7561C93.5413 28.7561 91.2789 31.1948 91.2789 34.4268C91.2789 37.6294 93.5413 40.0975 96.744 40.0975C98.6244 40.0975 100.299 38.8047 100.946 37.2474L105.294 39.3042C104.031 41.8016 101.474 44.5635 96.744 44.5635ZM112.533 44.2109H107.48V24.6132H112.533V44.2109ZM130.427 44.2109H116.059V24.6132H130.427V29.0205H121.113V32.0762H130.221V36.4835H121.113V39.8037H130.427V44.2109ZM151.578 44.2109H146.7L138.415 32.8695V44.2109H133.361V24.6132H138.561L146.495 35.3964V24.6132H151.578V44.2109ZM164.718 44.5635C158.695 44.5635 154.111 40.4501 154.111 34.4268C154.111 28.3741 158.695 24.29 164.718 24.29C169.449 24.29 172.005 26.9638 173.268 29.52L168.92 31.6061C168.273 30.0489 166.599 28.7561 164.718 28.7561C161.516 28.7561 159.253 31.1948 159.253 34.4268C159.253 37.6294 161.516 40.0975 164.718 40.0975C166.599 40.0975 168.273 38.8047 168.92 37.2474L173.268 39.3042C172.005 41.8016 169.449 44.5635 164.718 44.5635ZM189.822 44.2109H175.454V24.6132H189.822V29.0205H180.507V32.0762H189.616V36.4835H180.507V39.8037H189.822V44.2109Z" fill="#16213E"/>
<path d="M79.4002 64.2715H77.1393L76.3063 62.0785H71.1045L70.2715 64.2715H68.0106L72.4644 52.9328H74.9464L79.4002 64.2715ZM75.7453 60.3276L73.7054 54.9218L71.6655 60.3276H75.7453ZM85.4809 64.4755C82.132 64.4755 79.531 62.0955 79.531 58.6107C79.531 55.1088 82.132 52.7458 85.4809 52.7458C87.7588 52.7458 89.1868 53.9188 90.0197 55.2787L88.3368 56.1627C87.7928 55.2107 86.6878 54.5138 85.4809 54.5138C83.2369 54.5138 81.571 56.2137 81.571 58.6107C81.571 60.9736 83.2369 62.7075 85.4809 62.7075C86.6878 62.7075 87.7928 61.9936 88.3368 61.0586L90.0367 61.9086C89.1698 63.2685 87.7588 64.4755 85.4809 64.4755ZM101.828 64.2715H99.5673L98.7344 62.0785H93.5325L92.6996 64.2715H90.4386L94.8925 52.9328H97.3744L101.828 64.2715ZM98.1734 60.3276L96.1334 54.9218L94.0935 60.3276H98.1734ZM107.283 64.2715H103.05V52.9328H107.266C110.818 52.9328 113.198 55.2787 113.198 58.5937C113.198 61.9426 110.818 64.2715 107.283 64.2715ZM107.266 62.5205C109.731 62.5205 111.158 60.7526 111.158 58.5937C111.158 56.4177 109.799 54.6838 107.283 54.6838H105.039V62.5205H107.266ZM122.887 64.2715H115.119V52.9328H122.887V54.6838H117.108V57.6077H122.768V59.3586H117.108V62.5205H122.887V64.2715ZM136.711 64.2715H134.722V55.5167L131.254 64.2715H130.404L126.919 55.5167V64.2715H124.93V52.9328H127.735L130.829 60.7186L133.906 52.9328H136.711V64.2715ZM144.343 64.2715H142.354V59.5626L137.951 52.9328H140.229L143.34 57.7777L146.451 52.9328H148.729L144.343 59.5626V64.2715Z" fill="#7077A1"/>
<path d="M35.5529 61.5887C35.5529 61.5884 35.5529 61.5881 35.5528 61.5878C34.0988 57.1943 34.0628 52.3253 35.4504 47.9025C35.5007 47.7445 35.3884 47.5837 35.2226 47.5873C31.7997 47.6617 2.92175 48.279 2.5421 47.9481C2.13852 47.5964 1.4944 49.7975 0.823087 50.9825C0.231649 52.0264 0.221445 54.5738 0.227391 55.1652C0.22823 55.2487 0.233957 55.3321 0.243519 55.415C0.535521 57.947 1.02484 59.2481 2.25276 61.0012C2.78158 61.7562 3.66947 62.1679 4.5911 62.1513L35.5501 61.5915C35.5517 61.5915 35.5529 61.5903 35.5529 61.5887Z" fill="#3758F9" fill-opacity="0.05"/>
<path d="M36.4603 76.6555C36.1779 77.4232 36.8812 77.934 37.4681 77.4818L55.3433 64.0072C55.3627 63.9909 55.3793 63.9747 55.3931 63.9486C55.742 63.3631 60.0779 55.061 55.0027 47.7609C54.939 47.6698 54.8283 47.6503 54.748 47.7186C53.1117 49.0849 37.2439 59.8854 35.3583 61.2615C35.2587 61.3331 35.2337 61.4925 35.2947 61.6129C35.8595 62.6864 39.7994 67.5824 36.4575 76.6555H36.4603Z" fill="#000F28"/>
<path d="M35.3233 48.3588H2.57763C2.04939 48.3588 1.87792 47.523 2.35085 47.2444L20.0927 36.7191C20.4578 36.5021 20.8615 36.3887 21.2736 36.3887H55.5017L35.3233 48.3588Z" fill="#16213E"/>
<path d="M5.57812 54.5859H30.4915" stroke="#E4E6F2" stroke-width="0.291953" stroke-miterlimit="10" stroke-linecap="round"/>
<path d="M4.11719 70.6445H8.10722" stroke="#E4E6F2" stroke-width="0.291953" stroke-miterlimit="10" stroke-linecap="round"/>
<path d="M14.043 70.4492H34.577" stroke="#E4E6F2" stroke-width="0.291953" stroke-miterlimit="10" stroke-linecap="round"/>
<path d="M42.957 48.2115L52.6559 43.1582" stroke="#E4E6F2" stroke-width="0.291953" stroke-miterlimit="10" stroke-linecap="round"/>
<path d="M38.375 52.8365L40.0294 51.8633" stroke="#E4E6F2" stroke-width="0.291953" stroke-miterlimit="10" stroke-linecap="round"/>
<mask id="mask0_39_14527" style="mask-type:alpha" maskUnits="userSpaceOnUse" x="35" y="47" width="23" height="31">
<path d="M36.4603 76.6555C36.1779 77.4232 36.8812 77.934 37.4681 77.4818L55.3433 64.0072C55.3627 63.9909 55.3793 63.9747 55.3931 63.9486C55.742 63.3631 60.0779 55.061 55.0027 47.7609C54.939 47.6698 54.8283 47.6503 54.748 47.7186C53.1117 49.0849 37.2439 59.8854 35.3583 61.2615C35.2587 61.3331 35.2337 61.4925 35.2947 61.6129C35.8595 62.6864 39.7994 67.5824 36.4575 76.6555H36.4603Z" fill="#000F28"/>
</mask>
<g mask="url(#mask0_39_14527)">
<path d="M53.7531 62.6958C50.1433 66.0162 46.1031 68.6806 41.8189 70.5634C40.4387 71.1683 38.7314 71.4368 37.3311 72.1233C37.1388 73.5982 36.7543 75.2227 36.1058 77.0001C35.8131 77.8022 36.542 78.3357 37.1503 77.8633L55.6756 63.7868C55.6957 63.7698 55.7129 63.7528 55.7273 63.7256C55.888 63.4503 56.8779 61.5574 57.449 58.8691C56.2754 60.2217 55.0444 61.503 53.7502 62.6924L53.7531 62.6958Z" fill="#16213E"/>
</g>
<path d="M55.5017 36.3887H47.9486C47.3485 36.8649 46.7455 37.3379 46.1343 37.7946C43.2608 39.9489 40.202 41.7598 37.0242 43.2176C31.2716 45.8546 25.129 47.3286 18.956 47.5813C15.8695 47.7076 12.7747 47.5294 9.71309 47.037C8.16984 46.7876 6.63489 46.4604 5.11653 46.0522C4.94506 46.0069 4.77635 45.955 4.61041 45.9032L2.35085 47.2444C1.87792 47.5262 2.04939 48.3588 2.57763 48.3588H35.3233L55.5017 36.3887Z" fill="#000F28"/>
<rect x="0.226562" y="77.1641" width="36.9808" height="0.486589" rx="0.243295" fill="#14263E"/>
<path fill-rule="evenodd" clip-rule="evenodd" d="M2.53319 47.7026C2.60073 47.5984 2.57102 47.4592 2.46684 47.3917C2.36265 47.3241 2.22345 47.3538 2.15592 47.458C-0.826119 52.0583 -0.689084 58.2133 2.42351 61.6332L2.42358 61.6332C2.77284 62.0166 3.24392 62.2155 3.72732 62.2079L3.72737 62.2079L35.5563 61.7132C35.6805 61.7113 35.7795 61.6091 35.7776 61.4849C35.7757 61.3608 35.6735 61.2617 35.5493 61.2637L3.72033 61.7584L3.72027 61.7584C3.36777 61.7639 3.01967 61.6199 2.75593 61.3304C-0.0469944 58.2507 -0.340713 52.7371 2.13541 48.3589H2.56003V48.1643H2.24777C2.33935 48.0088 2.43449 47.8548 2.53319 47.7026Z" fill="#000F28"/>
<path d="M51.5459 58.7451L48.1461 58.3944L43.944 63.0418L43.7227 47.8156L51.3744 43.8281L51.5459 58.7451Z" fill="#FFCA00"/>
<path d="M48.4112 53.5702C47.573 54.9095 46.4498 56.1245 45.0888 56.9419C44.6711 57.1932 44.2672 57.345 43.8633 57.4527L43.9435 63.0418L48.1456 58.3944L51.5455 58.7451L51.3988 45.9902C51.3712 46.0703 51.3435 46.1504 51.3186 46.2277C50.5274 48.7461 49.8109 51.3307 48.4112 53.5702Z" fill="#F9B300"/>
<path d="M35.6409 77.1646C36.2458 77.0508 36.5412 76.5064 36.6199 76.1914H36.9119V77.1646H35.6409C35.4982 77.1914 35.3384 77.1943 35.1602 77.1646H35.6409Z" fill="#14263E"/>
<path d="M45.0439 9.80581L44.0547 10.377L51.2477 22.8355L52.2369 22.2644L45.0439 9.80581Z" fill="#64748B"/>
<path d="M51.3437 21.8579C52.0536 21.448 52.2968 20.5403 51.887 19.8305C51.4771 19.1206 50.5694 18.8774 49.8596 19.2872C49.1497 19.6971 48.9065 20.6048 49.3163 21.3146C49.7262 22.0245 50.6339 22.2677 51.3437 21.8579Z" fill="#16213E"/>
<path fill-rule="evenodd" clip-rule="evenodd" d="M22.9518 11.5417L47.7153 8.26471L40.909 15.8855L47.248 26.865C47.248 26.865 47.9928 30.6674 36.1768 37.4894C24.3609 44.3113 21.4402 41.7651 21.4402 41.7651L14.6998 30.0903L4.31336 31.7406L22.9518 11.5417Z" fill="#16213E"/>
<mask id="mask1_39_14527" style="mask-type:alpha" maskUnits="userSpaceOnUse" x="4" y="8" width="44" height="35">
<path fill-rule="evenodd" clip-rule="evenodd" d="M22.9518 11.5417L47.7153 8.26471L40.909 15.8855L47.248 26.865C47.248 26.865 47.9928 30.6674 36.1768 37.4894C24.3609 44.3113 21.4402 41.7651 21.4402 41.7651L14.6998 30.0903L4.31336 31.7406L22.9518 11.5417Z" fill="#1E293B"/>
</mask>
<g mask="url(#mask1_39_14527)">
<path d="M43.0868 15.5703C40.4081 39.6783 26.3451 41.6873 19.6484 39.6783L21.6574 44.5334L36.5575 39.6783L50.4531 28.7962L43.0868 15.5703Z" fill="#000F28"/>
</g>
</svg>
